<?xml version="1.0" encoding="utf-8"?>
<!-- Generator: Adobe Illustrator 23.0.5, SVG Export Plug-In . SVG Version: 6.00 Build 0)  -->
<svg version="1.1" id="Layer_1" xmlns="http://www.w3.org/2000/svg" xmlns:xlink="http://www.w3.org/1999/xlink" x="0px" y="0px"
	 viewBox="0 0 1000 1000" style="enable-background:new 0 0 1000 1000;" xml:space="preserve">
<style type="text/css">
	.st0{fill:#FFFFFF;}
</style>
<path class="st0" d="M563.55,567.07c6.02-24.18,11.92-47.91,17.83-71.63c3.88-15.58,7.75-31.17,11.7-46.73
	c2.9-11.42,12.92-18.41,23.5-16.48c5.43,0.99,9.29,4.42,12.25,8.75c6.7,9.83,11.43,20.77,17.01,31.23
	c6.7,12.56,13.24,25.21,19.85,37.81c0.47,0.9,1.04,1.75,1.76,2.95c11.51-21.9,22.8-43.45,34.16-64.95c1.47-2.79,3.16-5.51,5.08-8.02
	c8.53-11.19,22.92-10.82,31.2,0.57c4.13,5.68,4.96,12.44,6.58,18.89c8.91,35.35,17.62,70.76,26.38,106.15
	c0.09,0.37,0.01,0.77,0.01,1.45c-12.28,0-24.49-0.09-36.71,0.06c-2.89,0.04-2.39-2.12-2.69-3.46c-3.65-16.73-7.17-33.49-10.73-50.24
	c-1.1-5.16-2.2-10.31-3.46-16.19c-4.93,9.3-9.58,18.08-14.23,26.85c-5.56,10.49-11.09,20.99-16.69,31.45
	c-3.21,6-7.25,11.14-14.53,12.33c-9.52,1.56-18.34-3.07-23.25-12.22c-9.72-18.12-19.4-36.26-29.1-54.4
	c-0.6-1.13-1.24-2.24-2.15-3.88c-4.72,22.48-9.36,44.32-13.85,66.19c-0.54,2.65-1.43,3.64-4.33,3.59
	C587.47,566.96,575.78,567.07,563.55,567.07z"/>
<path class="st0" d="M388.43,468.14c7.62-11.46,14.85-22.34,22.06-33.23c0.85-1.28,2.01-1.5,3.42-1.49
	c26.45,0.23,52.94-0.97,79.35,0.61c17.4,1.04,33.38,6.94,43.8,22.08c14.1,20.5,10.62,52.29-14.62,67.55c-1.68,1.02-3.42,1.94-5.29,3
	c13.53,13.18,26.92,26.22,40.33,39.28c-1.02,1.24-2.17,0.7-3.13,0.7c-14.76,0.05-29.52-0.02-44.27,0.09
	c-2.47,0.02-4.2-0.72-5.95-2.44c-9.65-9.53-19.45-18.9-29.11-28.41c-1.72-1.69-3.4-2.51-5.91-2.49
	c-13.83,0.13-27.66,0.15-41.48-0.01c-2.88-0.03-3.86,0.52-3.77,3.64c0.24,8.77,0.01,17.55,0.13,26.32c0.03,2.42-0.37,3.46-3.17,3.41
	c-9.7-0.18-19.41-0.17-29.12,0.01c-2.8,0.05-3.23-0.94-3.22-3.44c0.09-20.48,0.1-40.95-0.03-61.43c-0.02-2.8,0.75-3.5,3.53-3.5
	c31.91,0.1,63.82,0.06,95.73,0.06c4.69,0,9.16-0.92,13.35-3.08c5.43-2.8,7.86-7.31,7.38-13.31c-0.45-5.66-3.35-9.62-8.75-11.66
	c-5.04-1.9-10.29-2.28-15.61-2.28C452.46,468.14,420.82,468.14,388.43,468.14z"/>
<path class="st0" d="M255.42,468.15c7.46-11.36,14.51-22.05,21.5-32.78c0.88-1.36,1.89-1.98,3.56-1.97
	c37.74,0.06,75.47,0.08,113.21,0.11c0.12,0,0.25,0.08,0.58,0.18c-0.28,1.58-1.44,2.68-2.27,3.94c-6.19,9.38-12.45,18.71-18.55,28.15
	c-1.15,1.79-2.33,2.44-4.43,2.42c-9.3-0.12-18.61,0.07-27.9-0.13c-2.88-0.06-3.45,0.82-3.44,3.54c0.1,30.3,0,60.59,0.17,90.89
	c0.02,3.59-0.97,4.36-4.36,4.27c-8.9-0.25-17.81-0.24-26.7-0.01c-3.49,0.09-4.69-0.63-4.66-4.47c0.19-30.03,0.05-60.06,0.18-90.09
	c0.01-3.25-0.68-4.19-4.07-4.14C284.18,468.28,270.13,468.15,255.42,468.15z"/>
</svg>
